#!OML:ASF I:\Actors\actors\Patient Classification 2\Patient 1\Session 1\actor1.ASF
:FULLY-SPECIFIED
:DEGREES
679
root -0.656897 18.7401 5.75056 4.7196 -5.78219 -3.2225
lowerback 7.81554 1.66694 -1.54634
upperback -1.72891 2.16556 1.57297
thorax -6.31768 1.15595 2.22856
lowerneck -9.32071 -6.91161 -4.19256
upperneck 22.8716 -13.3079 17.3235
head 10.374 -4.85195 5.21329
rclavicle 3.81263e-014 -1.03617e-014
rhumerus -8.52972 42.3553 -42.6642
rradius 101.82
rwrist -15.3379
rhand -11.1092 -22.0021
rfingers 7.12502
rthumb 14.9153 -51.4451
lclavicle 3.81263e-014 -1.03617e-014
lhumerus -7.24173 30.814 69.5504
lradius 122.687
lwrist 104.795
lhand -29.0094 -25.6657
lfingers 7.12502
lthumb -2.36077 4.30101
rfemur 0 0 0
rtibia 0
rfoot 0 0
rtoes 0
lfemur -6.33578 -4.93263 -11.2142
ltibia 22.2893
lfoot -25.8984 17.6316
ltoes -53.6357
680
root -0.658312 18.7395 5.75281 4.71383 -5.81081 -3.26643
lowerback 7.38518 1.6165 -1.74121
upperback -1.42102 2.09041 1.73934
thorax -5.75782 1.12148 2.53604
lowerneck -9.54208 -6.8645 -4.30742
upperneck 22.7272 -13.1774 17.2707
head 10.3502 -4.80288 5.2197
rclavicle -1.69278e-014 -7.28981e-015
rhumerus -7.88825 42.1737 -42.0713
rradius 101.671
rwrist -15.2482
rhand -11.2349 -22.1258
rfingers 7.12502
rthumb 14.7942 -51.5778
lclavicle -1.69278e-014 -7.28981e-015
lhumerus -6.9751 31.2466 69.7182
lradius 122.697
lwrist 104.738
lhand -29.044 -25.7287
lfingers 7.12502
lthumb -2.39423 4.23759
rfemur 0 0 0
rtibia 0
rfoot 0 0
rtoes 0
lfemur -6.31554 -4.91714 -11.1679
ltibia 22.2997
lfoot -25.9203 17.6438
ltoes -53.6554
681
root -0.658777 18.7391 5.75408 4.72654 -5.83803 -3.26563
lowerback 7.81498 1.67576 -1.53113
upperback -1.7372 2.18088 1.60408
thorax -6.32767 1.16374 2.25045
lowerneck -9.24811 -6.92583 -4.31076
upperneck 22.8227 -13.302 17.3445
head 10.3499 -4.8644 5.24274
rclavicle 1.47039e-014 -1.81639e-014
rhumerus -8.82027 42.2677 -42.6134
rradius 101.675
rwrist -15.1701
rhand -11.3719 -22.2807
rfingers 7.12502
rthumb 14.6622 -51.7423
lclavicle 1.47039e-014 -1.81639e-014
lhumerus -7.46735 30.9607 69.304
lradius 122.717
lwrist 104.925
lhand -29.0367 -25.6526
lfingers 7.12502
lthumb -2.38716 4.31377
rfemur 0 0 0
rtibia 0
rfoot 0 0
rtoes 0
lfemur -6.32381 -4.88519 -11.1689
ltibia 22.3046
lfoot -25.9461 17.63
ltoes -53.6688
682
root -0.658699 18.7399 5.75464 4.73501 -5.85491 -3.23755
lowerback 7.96751 1.70801 -1.48475
upperback -1.85274 2.22539 1.55397
thorax -6.53552 1.18532 2.16054
lowerneck -9.1201 -7.0516 -4.69664
upperneck 22.8963 -13.5233 17.6952
head 10.439 -4.96934 5.41627
rclavicle 2.43884e-014 -5.46658e-015
rhumerus -9.27224 42.2354 -42.8064
rradius 101.677
rwrist -15.2027
rhand -11.3838 -22.4521
rfingers 7.12502
rthumb 14.6508 -51.9145
lclavicle 2.43884e-014 -5.46658e-015
lhumerus -7.64794 30.9021 69.168
lradius 122.711
lwrist 105.014
lhand -29.0641 -25.5887
lfingers 7.12502
lthumb -2.41366 4.37741
rfemur 0 0 0
rtibia 0
rfoot 0 0
rtoes 0
lfemur -6.32995 -4.9277 -11.2014
ltibia 22.3021
lfoot -25.9872 17.6464
ltoes -53.6186
683
root -0.658589 18.7399 5.75513 4.72491 -5.86706 -3.21683
lowerback 7.98651 1.71252 -1.50757
upperback -1.85673 2.22871 1.55069
thorax -6.5516 1.18793 2.16896
lowerneck -9.14457 -7.30192 -5.59732
upperneck 23.0733 -13.972 18.4604
head 10.7094 -5.17096 5.80489
rclavicle -1.37938e-014 -1.799e-014
rhumerus -9.4293 42.1661 -42.8249
rradius 101.656
rwrist -15.2078
rhand -11.357 -22.4362
rfingers 7.12502
rthumb 14.6765 -51.8968
lclavicle -1.37938e-014 -1.799e-014
lhumerus -7.68896 30.9849 69.1357
lradius 122.697
lwrist 105.006
lhand -29.1122 -25.5914
lfingers 7.12502
lthumb -2.46011 4.37412
rfemur 0 0 0
rtibia 0
rfoot 0 0
rtoes 0
lfemur -6.31066 -4.95875 -11.228
ltibia 22.2943
lfoot -25.9766 17.6875
ltoes -53.6141
684
root -0.658525 18.7392 5.75553 4.72719 -5.87026 -3.18932
lowerback 7.98472 1.71084 -1.53429
upperback -1.86118 2.22336 1.54464
thorax -6.55585 1.1863 2.17839
lowerneck -9.19729 -7.30152 -5.51759
upperneck 23.1104 -13.9574 18.3296
head 10.7134 -5.16452 5.74292
rclavicle 7.32708e-015 -1.90585e-014
rhumerus -9.54921 42.1026 -42.8012
rradius 101.589
rwrist -15.139
rhand -11.2628 -22.2279
rfingers 7.12502
rthumb 14.7673 -51.6818
lclavicle 7.32708e-015 -1.90585e-014
lhumerus -7.74811 31.0697 69.0779
lradius 122.688
lwrist 105.025
lhand -29.0306 -25.6931
lfingers 7.12502
lthumb -2.38128 4.27338
rfemur 0 0 0
rtibia 0
rfoot 0 0
rtoes 0
lfemur -6.30789 -4.89952 -11.2563
ltibia 22.2845
lfoot -25.9125 17.6742
ltoes -53.6679
685
root -0.658584 18.739 5.75626 4.73451 -5.86277 -3.17593
lowerback 7.96792 1.70857 -1.54473
upperback -1.8633 2.21931 1.54293
thorax -6.54862 1.18466 2.18343
lowerneck -9.23638 -7.30852 -5.4845
upperneck 23.1283 -13.9564 18.2537
head 10.7183 -5.16503 5.70779
rclavicle 6.61891e-015 -9.26834e-015
rhumerus -9.67167 41.9924 -42.7865
rradius 101.5
rwrist -15.0697
rhand -11.0569 -22.1994
rfingers 7.12502
rthumb 14.9657 -51.6387
lclavicle 6.61891e-015 -9.26834e-015
lhumerus -7.8501 31.1313 69.0048
lradius 122.731
lwrist 105.049
lhand -28.8801 -25.9629
lfingers 7.12502
lthumb -2.2359 4.0051
rfemur 0 0 0
rtibia 0
rfoot 0 0
rtoes 0
lfemur -6.30899 -4.85286 -11.2677
ltibia 22.2705
lfoot -25.9167 17.6113
ltoes -53.6198
686
root -0.658817 18.7396 5.75734 4.73821 -5.85835 -3.18315
lowerback 7.93772 1.7114 -1.53343
upperback -1.86063 2.22452 1.54302
thorax -6.52832 1.18663 2.17724
lowerneck -9.2334 -7.33153 -5.5476
upperneck 23.1098 -13.9941 18.3233
head 10.7277 -5.18241 5.73908
rclavicle 1.87603e-015 2.18663e-015
rhumerus -9.81308 41.8648 -42.7969
rradius 101.435
rwrist -15.0701
rhand -10.9802 -22.2533
rfingers 7.12502
rthumb 15.0395 -51.687
lclavicle 1.87603e-015 2.18663e-015
lhumerus -7.90201 31.2179 69.016
lradius 122.812
lwrist 105.027
lhand -28.8389 -26.0641
lfingers 7.12502
lthumb -2.19613 3.90435
rfemur 0 0 0
rtibia 0
rfoot 0 0
rtoes 0
lfemur -6.29748 -4.9033 -11.2652
ltibia 22.2552
lfoot -25.9788 17.6236
ltoes -53.5667
687
root -0.659414 18.7403 5.75854 4.74364 -5.85563 -3.18142
lowerback 7.78395 1.70557 -1.60046
upperback -1.77752 2.21329 1.58609
thorax -6.35641 1.18262 2.26655
lowerneck -9.2682 -7.34693 -5.66218
upperneck 23.0173 -14.005 18.4266
head 10.7201 -5.19056 5.79177
rclavicle -8.90648e-015 -1.56791e-014
rhumerus -9.73515 41.7392 -42.6182
rradius 101.368
rwrist -15.0769
rhand -10.9759 -22.1235
rfingers 7.12502
rthumb 15.0438 -51.557
lclavicle -8.90648e-015 -1.56791e-014
lhumerus -7.80044 31.4124 69.1378
lradius 122.857
lwrist 104.972
lhand -28.8757 -25.8514
lfingers 7.12502
lthumb -2.23165 4.11672
rfemur 0 0 0
rtibia 0
rfoot 0 0
rtoes 0
lfemur -6.28951 -4.96048 -11.2717
ltibia 22.2449
lfoot -26.0104 17.6726
ltoes -53.5537
688
root -0.660011 18.7401 5.75971 4.73733 -5.84242 -3.16891
lowerback 7.52296 1.67658 -1.75062
upperback -1.60195 2.16619 1.67474
thorax -6.02914 1.16238 2.45874
lowerneck -9.35361 -7.33365 -5.77333
upperneck 22.865 -13.9513 18.4928
head 10.6868 -5.17261 5.83507
rclavicle 1.79791e-014 -2.12389e-014
rhumerus -9.38166 41.6042 -42.2443
rradius 101.264
rwrist -15.0525
rhand -10.9622 -22.1243
rfingers 7.12502
rthumb 15.0569 -51.5567
lclavicle 1.79791e-014 -2.12389e-014
lhumerus -7.61876 31.6721 69.2725
lradius 122.871
lwrist 104.921
lhand -28.8999 -25.6168
lfingers 7.12502
lthumb -2.25506 4.351
rfemur 0 0 0
rtibia 0
rfoot 0 0
rtoes 0
lfemur -6.2795 -4.91667 -11.2775
ltibia 22.2366
lfoot -25.9483 17.6467
ltoes -53.5933
689
root -0.659806 18.7393 5.76054 4.7234 -5.82745 -3.15805
lowerback 7.3819 1.65487 -1.82767
upperback -1.50185 2.1332 1.72055
thorax -5.84626 1.14699 2.55887
lowerneck -9.38074 -7.16822 -5.24901
upperneck 22.6815 -13.6272 17.9787
head 10.4905 -5.03495 5.58705
rclavicle 3.61565e-014 -4.00675e-016
rhumerus -9.23045 41.5015 -42.0429
rradius 101.157
rwrist -14.9949
rhand -11.0262 -22.3824
rfingers 7.12502
rthumb 14.9952 -51.8195
lclavicle 3.61565e-014 -4.00675e-016
lhumerus -7.53191 31.8384 69.3344
lradius 122.897
lwrist 104.863
lhand -28.9335 -25.4686
lfingers 7.12502
lthumb -2.28744 4.49883
rfemur 0 0 0
rtibia 0
rfoot 0 0
rtoes 0
lfemur -6.26478 -4.88512 -11.2849
ltibia 22.2294
lfoot -25.9024 17.6118
ltoes -53.6451
690
root -0.659117 18.7387 5.7612 4.70563 -5.81102 -3.1418
lowerback 7.35192 1.65176 -1.83754
upperback -1.48115 2.12823 1.71946
thorax -5.80741 1.14426 2.56486
lowerneck -9.40368 -7.34843 -5.75351
upperneck 22.7382 -13.9079 18.3402
head 10.6271 -5.16918 5.77233
rclavicle 4.38724e-015 2.89263e-014
rhumerus -9.32793 41.4204 -42.027
rradius 101.052
rwrist -14.8973
rhand -11.0793 -22.5979
rfingers 7.12502
rthumb 14.9441 -52.0388
lclavicle 4.38724e-015 2.89263e-014
lhumerus -7.5369 31.9034 69.3231
lradius 122.934
lwrist 104.81
lhand -28.9844 -25.4485
lfingers 7.12502
lthumb -2.33662 4.51844
rfemur 0 0 0
rtibia 0
rfoot 0 0
rtoes 0
lfemur -6.24574 -4.91634 -11.3085
ltibia 22.224
lfoot -25.9232 17.6125
ltoes -53.6014
691
root -0.658908 18.7385 5.76189 4.68878 -5.80279 -3.1253
lowerback 7.73279 1.70491 -1.61574
upperback -1.75841 2.20948 1.55809
thorax -6.30615 1.18017 2.24783
lowerneck -9.18861 -7.4345 -5.68332
upperneck 22.8447 -14.0679 18.3322
head 10.6417 -5.244 5.7446
rclavicle -1.25685e-014 -5.59082e-015
rhumerus -10.2116 41.4484 -42.6205
rradius 101.02
rwrist -14.6631
rhand -11.1087 -22.6733
rfingers 7.12502
rthumb 14.9157 -52.1163
lclavicle -1.25685e-014 -5.59082e-015
lhumerus -7.9583 31.5475 68.8944
lradius 122.945
lwrist 104.883
lhand -29.036 -25.4956
lfingers 7.12502
lthumb -2.38651 4.47079
rfemur 0 0 0
rtibia 0
rfoot 0 0
rtoes 0
lfemur -6.22647 -4.92752 -11.3306
ltibia 22.2174
lfoot -25.916 17.6367
ltoes -53.5914
692
root -0.659578 18.7387 5.76176 4.69449 -5.79215 -3.11822
lowerback 7.84126 1.72491 -1.54619
upperback -1.86639 2.23957 1.50106
thorax -6.47869 1.19338 2.14073
lowerneck -9.11934 -7.50005 -5.69829
upperneck 22.8801 -14.1698 18.3344
head 10.6577 -5.2939 5.73657
rclavicle -4.94787e-015 5.66536e-015
rhumerus -10.615 41.3841 -42.8557
rradius 100.953
rwrist -14.369
rhand -11.0387 -22.7525
rfingers 7.12502
rthumb 14.9832 -52.1905
lclavicle -4.94787e-015 5.66536e-015
lhumerus -8.1486 31.4388 68.6629
lradius 122.927
lwrist 104.923
lhand -29.0745 -25.3999
lfingers 7.12502
lthumb -2.42365 4.56608
rfemur 0 0 0
rtibia 0
rfoot 0 0
rtoes 0
lfemur -6.23792 -4.93649 -11.3355
ltibia 22.2117
lfoot -25.9102 17.6656
ltoes -53.6768
693
root -0.660175 18.7388 5.76098 4.70361 -5.7513 -3.13
lowerback 7.83187 1.71958 -1.5306
upperback -1.88889 2.23473 1.50756
thorax -6.49655 1.1909 2.1394
lowerneck -9.10712 -7.5303 -5.72877
upperneck 22.8795 -14.1998 18.3034
head 10.6587 -5.31391 5.72589
rclavicle -1.68222e-014 -4.77083e-015
rhumerus -10.7933 41.2978 -42.9129
rradius 100.852
rwrist -14.1717
rhand -10.9211 -22.7012
rfingers 7.12502
rthumb 15.0965 -52.1307
lclavicle -1.68222e-014 -4.77083e-015
lhumerus -8.16802 31.5074 68.6476
lradius 122.934
lwrist 104.858
lhand -29.0849 -25.2975
lfingers 7.12502
lthumb -2.43371 4.66834
rfemur 0 0 0
rtibia 0
rfoot 0 0
rtoes 0
lfemur -6.26137 -4.95846 -11.3161
ltibia 22.2137
lfoot -25.9149 17.6493
ltoes -53.6886
694
root -0.659972 18.7388 5.76113 4.69229 -5.71172 -3.15875
lowerback 7.82987 1.70832 -1.48083
upperback -1.90337 2.22533 1.51394
thorax -6.50847 1.18469 2.11925
lowerneck -9.10021 -7.54439 -5.6998
upperneck 22.8758 -14.1971 18.2026
head 10.6435 -5.32021 5.68284
rclavicle -1.83814e-014 1.73937e-015
rhumerus -10.9389 41.2714 -42.9545
rradius 100.752
rwrist -14.1886
rhand -10.9939 -22.5566
rfingers 7.12502
rthumb 15.0263 -51.9913
lclavicle -1.83814e-014 1.73937e-015
lhumerus -8.17356 31.6075 68.6344
lradius 122.945
lwrist 104.829
lhand -29.0206 -25.2849
lfingers 7.12502
lthumb -2.37157 4.68162
rfemur 0 0 0
rtibia 0
rfoot 0 0
rtoes 0
lfemur -6.25763 -4.96118 -11.279
ltibia 22.2226
lfoot -25.8851 17.5974
ltoes -53.6299
